<?xml version="1.0" encoding="utf-8" standalone="no"?>
<!DOCTYPE svg PUBLIC "-//W3C//DTD SVG 1.1//EN"
  "http://www.w3.org/Graphics/SVG/1.1/DTD/svg11.dtd">
<svg xmlns:xlink="http://www.w3.org/1999/xlink" width="1072.380312pt" height="355.59625pt" viewBox="0 0 1072.380312 355.59625" xmlns="http://www.w3.org/2000/svg" version="1.1">
 <metadata>
  <rdf:RDF xmlns:dc="http://purl.org/dc/elements/1.1/" xmlns:cc="http://creativecommons.org/ns#" xmlns:rdf="http://www.w3.org/1999/02/22-rdf-syntax-ns#">
   <cc:Work>
    <dc:type rdf:resource="http://purl.org/dc/dcmitype/StillImage"/>
    <dc:date>2026-03-03T11:12:10.775516</dc:date>
    <dc:format>image/svg+xml</dc:format>
    <dc:creator>
     <cc:Agent>
      <dc:title>Matplotlib v3.10.8, https://matplotlib.org/</dc:title>
     </cc:Agent>
    </dc:creator>
   </cc:Work>
  </rdf:RDF>
 </metadata>
 <defs>
  <style type="text/css">*{stroke-linejoin: round; stroke-linecap: butt}</style>
 </defs>
 <g id="figure_1">
  <g id="patch_1">
   <path d="M 0 355.59625 
L 1072.380312 355.59625 
L 1072.380312 0 
L 0 0 
z
" style="fill: #ffffff"/>
  </g>
  <g id="axes_1">
   <g id="patch_2">
    <path d="M 42.620313 318.04 
L 341.880313 318.04 
L 341.880313 51.36 
L 42.620313 51.36 
z
" style="fill: #ffffff"/>
   </g>
   <g id="patch_3">
    <path d="M 56.22304 51.36 
L 113.497681 51.36 
L 113.497681 305.340952 
L 56.22304 305.340952 
z
" clip-path="url(#p8dc770d713)" style="fill: #2ca02c; opacity: 0.8"/>
   </g>
   <g id="patch_4">
    <path d="M 127.816341 51.36 
L 185.090982 51.36 
L 185.090982 52.5524 
L 127.816341 52.5524 
z
" clip-path="url(#p8dc770d713)" style="fill: #2ca02c; opacity: 0.8"/>
   </g>
   <g id="patch_5">
    <path d="M 199.409643 51.36 
L 256.684284 51.36 
L 256.684284 51.84736 
L 199.409643 51.84736 
z
" clip-path="url(#p8dc770d713)" style="fill: #2ca02c; opacity: 0.8"/>
   </g>
   <g id="patch_6">
    <path d="M 271.002944 51.36 
L 328.277585 51.36 
L 328.277585 51.375312 
L 271.002944 51.375312 
z
" clip-path="url(#p8dc770d713)" style="fill: #2ca02c; opacity: 0.8"/>
   </g>
   <g id="matplotlib.axis_1">
    <g id="xtick_1">
     <g id="line2d_1">
      <defs>
       <path id="m4dd3b64f3d" d="M 0 0 
L 0 3.5 
" style="stroke: #000000; stroke-width: 0.8"/>
      </defs>
      <g>
       <use xlink:href="#m4dd3b64f3d" x="84.86036" y="318.04" style="stroke: #000000; stroke-width: 0.8"/>
      </g>
     </g>
     <g id="text_1">
      <!-- S0 -->
      <g transform="translate(78.504892 332.638437) scale(0.1 -0.1)">
       <defs>
        <path id="DejaVuSans-53" d="M 3425 4513 
L 3425 3897 
Q 3066 4069 2747 4153 
Q 2428 4238 2131 4238 
Q 1616 4238 1336 4038 
Q 1056 3838 1056 3469 
Q 1056 3159 1242 3001 
Q 1428 2844 1947 2747 
L 2328 2669 
Q 3034 2534 3370 2195 
Q 3706 1856 3706 1288 
Q 3706 609 3251 259 
Q 2797 -91 1919 -91 
Q 1588 -91 1214 -16 
Q 841 59 441 206 
L 441 856 
Q 825 641 1194 531 
Q 1563 422 1919 422 
Q 2459 422 2753 634 
Q 3047 847 3047 1241 
Q 3047 1584 2836 1778 
Q 2625 1972 2144 2069 
L 1759 2144 
Q 1053 2284 737 2584 
Q 422 2884 422 3419 
Q 422 4038 858 4394 
Q 1294 4750 2059 4750 
Q 2388 4750 2728 4690 
Q 3069 4631 3425 4513 
z
" transform="scale(0.015625)"/>
        <path id="DejaVuSans-30" d="M 2034 4250 
Q 1547 4250 1301 3770 
Q 1056 3291 1056 2328 
Q 1056 1369 1301 889 
Q 1547 409 2034 409 
Q 2525 409 2770 889 
Q 3016 1369 3016 2328 
Q 3016 3291 2770 3770 
Q 2525 4250 2034 4250 
z
M 2034 4750 
Q 2819 4750 3233 4129 
Q 3647 3509 3647 2328 
Q 3647 1150 3233 529 
Q 2819 -91 2034 -91 
Q 1250 -91 836 529 
Q 422 1150 422 2328 
Q 422 3509 836 4129 
Q 1250 4750 2034 4750 
z
" transform="scale(0.015625)"/>
       </defs>
       <use xlink:href="#DejaVuSans-53"/>
       <use xlink:href="#DejaVuSans-30" transform="translate(63.476562 0)"/>
      </g>
     </g>
    </g>
    <g id="xtick_2">
     <g id="line2d_2">
      <g>
       <use xlink:href="#m4dd3b64f3d" x="156.453662" y="318.04" style="stroke: #000000; stroke-width: 0.8"/>
      </g>
     </g>
     <g id="text_2">
      <!-- S1 -->
      <g transform="translate(150.098193 332.638437) scale(0.1 -0.1)">
       <defs>
        <path id="DejaVuSans-31" d="M 794 531 
L 1825 531 
L 1825 4091 
L 703 3866 
L 703 4441 
L 1819 4666 
L 2450 4666 
L 2450 531 
L 3481 531 
L 3481 0 
L 794 0 
L 794 531 
z
" transform="scale(0.015625)"/>
       </defs>
       <use xlink:href="#DejaVuSans-53"/>
       <use xlink:href="#DejaVuSans-31" transform="translate(63.476562 0)"/>
      </g>
     </g>
    </g>
    <g id="xtick_3">
     <g id="line2d_3">
      <g>
       <use xlink:href="#m4dd3b64f3d" x="228.046963" y="318.04" style="stroke: #000000; stroke-width: 0.8"/>
      </g>
     </g>
     <g id="text_3">
      <!-- S2 -->
      <g transform="translate(221.691494 332.638437) scale(0.1 -0.1)">
       <defs>
        <path id="DejaVuSans-32" d="M 1228 531 
L 3431 531 
L 3431 0 
L 469 0 
L 469 531 
Q 828 903 1448 1529 
Q 2069 2156 2228 2338 
Q 2531 2678 2651 2914 
Q 2772 3150 2772 3378 
Q 2772 3750 2511 3984 
Q 2250 4219 1831 4219 
Q 1534 4219 1204 4116 
Q 875 4013 500 3803 
L 500 4441 
Q 881 4594 1212 4672 
Q 1544 4750 1819 4750 
Q 2544 4750 2975 4387 
Q 3406 4025 3406 3419 
Q 3406 3131 3298 2873 
Q 3191 2616 2906 2266 
Q 2828 2175 2409 1742 
Q 1991 1309 1228 531 
z
" transform="scale(0.015625)"/>
       </defs>
       <use xlink:href="#DejaVuSans-53"/>
       <use xlink:href="#DejaVuSans-32" transform="translate(63.476562 0)"/>
      </g>
     </g>
    </g>
    <g id="xtick_4">
     <g id="line2d_4">
      <g>
       <use xlink:href="#m4dd3b64f3d" x="299.640265" y="318.04" style="stroke: #000000; stroke-width: 0.8"/>
      </g>
     </g>
     <g id="text_4">
      <!-- S3 -->
      <g transform="translate(293.284796 332.638437) scale(0.1 -0.1)">
       <defs>
        <path id="DejaVuSans-33" d="M 2597 2516 
Q 3050 2419 3304 2112 
Q 3559 1806 3559 1356 
Q 3559 666 3084 287 
Q 2609 -91 1734 -91 
Q 1441 -91 1130 -33 
Q 819 25 488 141 
L 488 750 
Q 750 597 1062 519 
Q 1375 441 1716 441 
Q 2309 441 2620 675 
Q 2931 909 2931 1356 
Q 2931 1769 2642 2001 
Q 2353 2234 1838 2234 
L 1294 2234 
L 1294 2753 
L 1863 2753 
Q 2328 2753 2575 2939 
Q 2822 3125 2822 3475 
Q 2822 3834 2567 4026 
Q 2313 4219 1838 4219 
Q 1578 4219 1281 4162 
Q 984 4106 628 3988 
L 628 4550 
Q 988 4650 1302 4700 
Q 1616 4750 1894 4750 
Q 2613 4750 3031 4423 
Q 3450 4097 3450 3541 
Q 3450 3153 3228 2886 
Q 3006 2619 2597 2516 
z
" transform="scale(0.015625)"/>
       </defs>
       <use xlink:href="#DejaVuSans-53"/>
       <use xlink:href="#DejaVuSans-33" transform="translate(63.476562 0)"/>
      </g>
     </g>
    </g>
    <g id="text_5">
     <!-- Scale -->
     <g transform="translate(178.797188 346.316562) scale(0.1 -0.1)">
      <defs>
       <path id="DejaVuSans-63" d="M 3122 3366 
L 3122 2828 
Q 2878 2963 2633 3030 
Q 2388 3097 2138 3097 
Q 1578 3097 1268 2742 
Q 959 2388 959 1747 
Q 959 1106 1268 751 
Q 1578 397 2138 397 
Q 2388 397 2633 464 
Q 2878 531 3122 666 
L 3122 134 
Q 2881 22 2623 -34 
Q 2366 -91 2075 -91 
Q 1284 -91 818 406 
Q 353 903 353 1747 
Q 353 2603 823 3093 
Q 1294 3584 2113 3584 
Q 2378 3584 2631 3529 
Q 2884 3475 3122 3366 
z
" transform="scale(0.015625)"/>
       <path id="DejaVuSans-61" d="M 2194 1759 
Q 1497 1759 1228 1600 
Q 959 1441 959 1056 
Q 959 750 1161 570 
Q 1363 391 1709 391 
Q 2188 391 2477 730 
Q 2766 1069 2766 1631 
L 2766 1759 
L 2194 1759 
z
M 3341 1997 
L 3341 0 
L 2766 0 
L 2766 531 
Q 2569 213 2275 61 
Q 1981 -91 1556 -91 
Q 1019 -91 701 211 
Q 384 513 384 1019 
Q 384 1609 779 1909 
Q 1175 2209 1959 2209 
L 2766 2209 
L 2766 2266 
Q 2766 2663 2505 2880 
Q 2244 3097 1772 3097 
Q 1472 3097 1187 3025 
Q 903 2953 641 2809 
L 641 3341 
Q 956 3463 1253 3523 
Q 1550 3584 1831 3584 
Q 2591 3584 2966 3190 
Q 3341 2797 3341 1997 
z
" transform="scale(0.015625)"/>
       <path id="DejaVuSans-6c" d="M 603 4863 
L 1178 4863 
L 1178 0 
L 603 0 
L 603 4863 
z
" transform="scale(0.015625)"/>
       <path id="DejaVuSans-65" d="M 3597 1894 
L 3597 1613 
L 953 1613 
Q 991 1019 1311 708 
Q 1631 397 2203 397 
Q 2534 397 2845 478 
Q 3156 559 3463 722 
L 3463 178 
Q 3153 47 2828 -22 
Q 2503 -91 2169 -91 
Q 1331 -91 842 396 
Q 353 884 353 1716 
Q 353 2575 817 3079 
Q 1281 3584 2069 3584 
Q 2775 3584 3186 3129 
Q 3597 2675 3597 1894 
z
M 3022 2063 
Q 3016 2534 2758 2815 
Q 2500 3097 2075 3097 
Q 1594 3097 1305 2825 
Q 1016 2553 972 2059 
L 3022 2063 
z
" transform="scale(0.015625)"/>
      </defs>
      <use xlink:href="#DejaVuSans-53"/>
      <use xlink:href="#DejaVuSans-63" transform="translate(63.476562 0)"/>
      <use xlink:href="#DejaVuSans-61" transform="translate(118.457031 0)"/>
      <use xlink:href="#DejaVuSans-6c" transform="translate(179.736328 0)"/>
      <use xlink:href="#DejaVuSans-65" transform="translate(207.519531 0)"/>
     </g>
    </g>
   </g>
   <g id="matplotlib.axis_2">
    <g id="ytick_1">
     <g id="line2d_5">
      <path d="M 42.620313 299.847629 
L 341.880313 299.847629 
" clip-path="url(#p8dc770d713)" style="fill: none; stroke: #b0b0b0; stroke-opacity: 0.3; stroke-width: 0.8; stroke-linecap: square"/>
     </g>
     <g id="line2d_6">
      <defs>
       <path id="mf4c519da12" d="M 0 0 
L -3.5 0 
" style="stroke: #000000; stroke-width: 0.8"/>
      </defs>
      <g>
       <use xlink:href="#mf4c519da12" x="42.620313" y="299.847629" style="stroke: #000000; stroke-width: 0.8"/>
      </g>
     </g>
     <g id="text_6">
      <!-- −6 -->
      <g transform="translate(20.878125 303.646848) scale(0.1 -0.1)">
       <defs>
        <path id="DejaVuSans-2212" d="M 678 2272 
L 4684 2272 
L 4684 1741 
L 678 1741 
L 678 2272 
z
" transform="scale(0.015625)"/>
        <path id="DejaVuSans-36" d="M 2113 2584 
Q 1688 2584 1439 2293 
Q 1191 2003 1191 1497 
Q 1191 994 1439 701 
Q 1688 409 2113 409 
Q 2538 409 2786 701 
Q 3034 994 3034 1497 
Q 3034 2003 2786 2293 
Q 2538 2584 2113 2584 
z
M 3366 4563 
L 3366 3988 
Q 3128 4100 2886 4159 
Q 2644 4219 2406 4219 
Q 1781 4219 1451 3797 
Q 1122 3375 1075 2522 
Q 1259 2794 1537 2939 
Q 1816 3084 2150 3084 
Q 2853 3084 3261 2657 
Q 3669 2231 3669 1497 
Q 3669 778 3244 343 
Q 2819 -91 2113 -91 
Q 1303 -91 875 529 
Q 447 1150 447 2328 
Q 447 3434 972 4092 
Q 1497 4750 2381 4750 
Q 2619 4750 2861 4703 
Q 3103 4656 3366 4563 
z
" transform="scale(0.015625)"/>
       </defs>
       <use xlink:href="#DejaVuSans-2212"/>
       <use xlink:href="#DejaVuSans-36" transform="translate(83.789062 0)"/>
      </g>
     </g>
    </g>
    <g id="ytick_2">
     <g id="line2d_7">
      <path d="M 42.620313 258.433024 
L 341.880313 258.433024 
" clip-path="url(#p8dc770d713)" style="fill: none; stroke: #b0b0b0; stroke-opacity: 0.3; stroke-width: 0.8; stroke-linecap: square"/>
     </g>
     <g id="line2d_8">
      <g>
       <use xlink:href="#mf4c519da12" x="42.620313" y="258.433024" style="stroke: #000000; stroke-width: 0.8"/>
      </g>
     </g>
     <g id="text_7">
      <!-- −5 -->
      <g transform="translate(20.878125 262.232243) scale(0.1 -0.1)">
       <defs>
        <path id="DejaVuSans-35" d="M 691 4666 
L 3169 4666 
L 3169 4134 
L 1269 4134 
L 1269 2991 
Q 1406 3038 1543 3061 
Q 1681 3084 1819 3084 
Q 2600 3084 3056 2656 
Q 3513 2228 3513 1497 
Q 3513 744 3044 326 
Q 2575 -91 1722 -91 
Q 1428 -91 1123 -41 
Q 819 9 494 109 
L 494 744 
Q 775 591 1075 516 
Q 1375 441 1709 441 
Q 2250 441 2565 725 
Q 2881 1009 2881 1497 
Q 2881 1984 2565 2268 
Q 2250 2553 1709 2553 
Q 1456 2553 1204 2497 
Q 953 2441 691 2322 
L 691 4666 
z
" transform="scale(0.015625)"/>
       </defs>
       <use xlink:href="#DejaVuSans-2212"/>
       <use xlink:href="#DejaVuSans-35" transform="translate(83.789062 0)"/>
      </g>
     </g>
    </g>
    <g id="ytick_3">
     <g id="line2d_9">
      <path d="M 42.620313 217.018419 
L 341.880313 217.018419 
" clip-path="url(#p8dc770d713)" style="fill: none; stroke: #b0b0b0; stroke-opacity: 0.3; stroke-width: 0.8; stroke-linecap: square"/>
     </g>
     <g id="line2d_10">
      <g>
       <use xlink:href="#mf4c519da12" x="42.620313" y="217.018419" style="stroke: #000000; stroke-width: 0.8"/>
      </g>
     </g>
     <g id="text_8">
      <!-- −4 -->
      <g transform="translate(20.878125 220.817638) scale(0.1 -0.1)">
       <defs>
        <path id="DejaVuSans-34" d="M 2419 4116 
L 825 1625 
L 2419 1625 
L 2419 4116 
z
M 2253 4666 
L 3047 4666 
L 3047 1625 
L 3713 1625 
L 3713 1100 
L 3047 1100 
L 3047 0 
L 2419 0 
L 2419 1100 
L 313 1100 
L 313 1709 
L 2253 4666 
z
" transform="scale(0.015625)"/>
       </defs>
       <use xlink:href="#DejaVuSans-2212"/>
       <use xlink:href="#DejaVuSans-34" transform="translate(83.789062 0)"/>
      </g>
     </g>
    </g>
    <g id="ytick_4">
     <g id="line2d_11">
      <path d="M 42.620313 175.603815 
L 341.880313 175.603815 
" clip-path="url(#p8dc770d713)" style="fill: none; stroke: #b0b0b0; stroke-opacity: 0.3; stroke-width: 0.8; stroke-linecap: square"/>
     </g>
     <g id="line2d_12">
      <g>
       <use xlink:href="#mf4c519da12" x="42.620313" y="175.603815" style="stroke: #000000; stroke-width: 0.8"/>
      </g>
     </g>
     <g id="text_9">
      <!-- −3 -->
      <g transform="translate(20.878125 179.403033) scale(0.1 -0.1)">
       <use xlink:href="#DejaVuSans-2212"/>
       <use xlink:href="#DejaVuSans-33" transform="translate(83.789062 0)"/>
      </g>
     </g>
    </g>
    <g id="ytick_5">
     <g id="line2d_13">
      <path d="M 42.620313 134.18921 
L 341.880313 134.18921 
" clip-path="url(#p8dc770d713)" style="fill: none; stroke: #b0b0b0; stroke-opacity: 0.3; stroke-width: 0.8; stroke-linecap: square"/>
     </g>
     <g id="line2d_14">
      <g>
       <use xlink:href="#mf4c519da12" x="42.620313" y="134.18921" style="stroke: #000000; stroke-width: 0.8"/>
      </g>
     </g>
     <g id="text_10">
      <!-- −2 -->
      <g transform="translate(20.878125 137.988428) scale(0.1 -0.1)">
       <use xlink:href="#DejaVuSans-2212"/>
       <use xlink:href="#DejaVuSans-32" transform="translate(83.789062 0)"/>
      </g>
     </g>
    </g>
    <g id="ytick_6">
     <g id="line2d_15">
      <path d="M 42.620313 92.774605 
L 341.880313 92.774605 
" clip-path="url(#p8dc770d713)" style="fill: none; stroke: #b0b0b0; stroke-opacity: 0.3; stroke-width: 0.8; stroke-linecap: square"/>
     </g>
     <g id="line2d_16">
      <g>
       <use xlink:href="#mf4c519da12" x="42.620313" y="92.774605" style="stroke: #000000; stroke-width: 0.8"/>
      </g>
     </g>
     <g id="text_11">
      <!-- −1 -->
      <g transform="translate(20.878125 96.573824) scale(0.1 -0.1)">
       <use xlink:href="#DejaVuSans-2212"/>
       <use xlink:href="#DejaVuSans-31" transform="translate(83.789062 0)"/>
      </g>
     </g>
    </g>
    <g id="ytick_7">
     <g id="line2d_17">
      <path d="M 42.620313 51.36 
L 341.880313 51.36 
" clip-path="url(#p8dc770d713)" style="fill: none; stroke: #b0b0b0; stroke-opacity: 0.3; stroke-width: 0.8; stroke-linecap: square"/>
     </g>
     <g id="line2d_18">
      <g>
       <use xlink:href="#mf4c519da12" x="42.620313" y="51.36" style="stroke: #000000; stroke-width: 0.8"/>
      </g>
     </g>
     <g id="text_12">
      <!-- 0 -->
      <g transform="translate(29.257813 55.159219) scale(0.1 -0.1)">
       <use xlink:href="#DejaVuSans-30"/>
      </g>
     </g>
    </g>
    <g id="text_13">
     <!-- Energy Δ (Gen - Real) -->
     <g transform="translate(14.798438 238.586719) rotate(-90) scale(0.1 -0.1)">
      <defs>
       <path id="DejaVuSans-45" d="M 628 4666 
L 3578 4666 
L 3578 4134 
L 1259 4134 
L 1259 2753 
L 3481 2753 
L 3481 2222 
L 1259 2222 
L 1259 531 
L 3634 531 
L 3634 0 
L 628 0 
L 628 4666 
z
" transform="scale(0.015625)"/>
       <path id="DejaVuSans-6e" d="M 3513 2113 
L 3513 0 
L 2938 0 
L 2938 2094 
Q 2938 2591 2744 2837 
Q 2550 3084 2163 3084 
Q 1697 3084 1428 2787 
Q 1159 2491 1159 1978 
L 1159 0 
L 581 0 
L 581 3500 
L 1159 3500 
L 1159 2956 
Q 1366 3272 1645 3428 
Q 1925 3584 2291 3584 
Q 2894 3584 3203 3211 
Q 3513 2838 3513 2113 
z
" transform="scale(0.015625)"/>
       <path id="DejaVuSans-72" d="M 2631 2963 
Q 2534 3019 2420 3045 
Q 2306 3072 2169 3072 
Q 1681 3072 1420 2755 
Q 1159 2438 1159 1844 
L 1159 0 
L 581 0 
L 581 3500 
L 1159 3500 
L 1159 2956 
Q 1341 3275 1631 3429 
Q 1922 3584 2338 3584 
Q 2397 3584 2469 3576 
Q 2541 3569 2628 3553 
L 2631 2963 
z
" transform="scale(0.015625)"/>
       <path id="DejaVuSans-67" d="M 2906 1791 
Q 2906 2416 2648 2759 
Q 2391 3103 1925 3103 
Q 1463 3103 1205 2759 
Q 947 2416 947 1791 
Q 947 1169 1205 825 
Q 1463 481 1925 481 
Q 2391 481 2648 825 
Q 2906 1169 2906 1791 
z
M 3481 434 
Q 3481 -459 3084 -895 
Q 2688 -1331 1869 -1331 
Q 1566 -1331 1297 -1286 
Q 1028 -1241 775 -1147 
L 775 -588 
Q 1028 -725 1275 -790 
Q 1522 -856 1778 -856 
Q 2344 -856 2625 -561 
Q 2906 -266 2906 331 
L 2906 616 
Q 2728 306 2450 153 
Q 2172 0 1784 0 
Q 1141 0 747 490 
Q 353 981 353 1791 
Q 353 2603 747 3093 
Q 1141 3584 1784 3584 
Q 2172 3584 2450 3431 
Q 2728 3278 2906 2969 
L 2906 3500 
L 3481 3500 
L 3481 434 
z
" transform="scale(0.015625)"/>
       <path id="DejaVuSans-79" d="M 2059 -325 
Q 1816 -950 1584 -1140 
Q 1353 -1331 966 -1331 
L 506 -1331 
L 506 -850 
L 844 -850 
Q 1081 -850 1212 -737 
Q 1344 -625 1503 -206 
L 1606 56 
L 191 3500 
L 800 3500 
L 1894 763 
L 2988 3500 
L 3597 3500 
L 2059 -325 
z
" transform="scale(0.015625)"/>
       <path id="DejaVuSans-20" transform="scale(0.015625)"/>
       <path id="DejaVuSans-394" d="M 2188 4044 
L 906 525 
L 3472 525 
L 2188 4044 
z
M 50 0 
L 1831 4666 
L 2547 4666 
L 4325 0 
L 50 0 
z
" transform="scale(0.015625)"/>
       <path id="DejaVuSans-28" d="M 1984 4856 
Q 1566 4138 1362 3434 
Q 1159 2731 1159 2009 
Q 1159 1288 1364 580 
Q 1569 -128 1984 -844 
L 1484 -844 
Q 1016 -109 783 600 
Q 550 1309 550 2009 
Q 550 2706 781 3412 
Q 1013 4119 1484 4856 
L 1984 4856 
z
" transform="scale(0.015625)"/>
       <path id="DejaVuSans-47" d="M 3809 666 
L 3809 1919 
L 2778 1919 
L 2778 2438 
L 4434 2438 
L 4434 434 
Q 4069 175 3628 42 
Q 3188 -91 2688 -91 
Q 1594 -91 976 548 
Q 359 1188 359 2328 
Q 359 3472 976 4111 
Q 1594 4750 2688 4750 
Q 3144 4750 3555 4637 
Q 3966 4525 4313 4306 
L 4313 3634 
Q 3963 3931 3569 4081 
Q 3175 4231 2741 4231 
Q 1884 4231 1454 3753 
Q 1025 3275 1025 2328 
Q 1025 1384 1454 906 
Q 1884 428 2741 428 
Q 3075 428 3337 486 
Q 3600 544 3809 666 
z
" transform="scale(0.015625)"/>
       <path id="DejaVuSans-2d" d="M 313 2009 
L 1997 2009 
L 1997 1497 
L 313 1497 
L 313 2009 
z
" transform="scale(0.015625)"/>
       <path id="DejaVuSans-52" d="M 2841 2188 
Q 3044 2119 3236 1894 
Q 3428 1669 3622 1275 
L 4263 0 
L 3584 0 
L 2988 1197 
Q 2756 1666 2539 1819 
Q 2322 1972 1947 1972 
L 1259 1972 
L 1259 0 
L 628 0 
L 628 4666 
L 2053 4666 
Q 2853 4666 3247 4331 
Q 3641 3997 3641 3322 
Q 3641 2881 3436 2590 
Q 3231 2300 2841 2188 
z
M 1259 4147 
L 1259 2491 
L 2053 2491 
Q 2509 2491 2742 2702 
Q 2975 2913 2975 3322 
Q 2975 3731 2742 3939 
Q 2509 4147 2053 4147 
L 1259 4147 
z
" transform="scale(0.015625)"/>
       <path id="DejaVuSans-29" d="M 513 4856 
L 1013 4856 
Q 1481 4119 1714 3412 
Q 1947 2706 1947 2009 
Q 1947 1309 1714 600 
Q 1481 -109 1013 -844 
L 513 -844 
Q 928 -128 1133 580 
Q 1338 1288 1338 2009 
Q 1338 2731 1133 3434 
Q 928 4138 513 4856 
z
" transform="scale(0.015625)"/>
      </defs>
      <use xlink:href="#DejaVuSans-45"/>
      <use xlink:href="#DejaVuSans-6e" transform="translate(63.183594 0)"/>
      <use xlink:href="#DejaVuSans-65" transform="translate(126.5625 0)"/>
      <use xlink:href="#DejaVuSans-72" transform="translate(188.085938 0)"/>
      <use xlink:href="#DejaVuSans-67" transform="translate(227.449219 0)"/>
      <use xlink:href="#DejaVuSans-79" transform="translate(290.925781 0)"/>
      <use xlink:href="#DejaVuSans-20" transform="translate(350.105469 0)"/>
      <use xlink:href="#DejaVuSans-394" transform="translate(381.892578 0)"/>
      <use xlink:href="#DejaVuSans-20" transform="translate(450.300781 0)"/>
      <use xlink:href="#DejaVuSans-28" transform="translate(482.087891 0)"/>
      <use xlink:href="#DejaVuSans-47" transform="translate(521.101562 0)"/>
      <use xlink:href="#DejaVuSans-65" transform="translate(598.591797 0)"/>
      <use xlink:href="#DejaVuSans-6e" transform="translate(660.115234 0)"/>
      <use xlink:href="#DejaVuSans-20" transform="translate(723.494141 0)"/>
      <use xlink:href="#DejaVuSans-2d" transform="translate(755.28125 0)"/>
      <use xlink:href="#DejaVuSans-20" transform="translate(791.365234 0)"/>
      <use xlink:href="#DejaVuSans-52" transform="translate(823.152344 0)"/>
      <use xlink:href="#DejaVuSans-65" transform="translate(888.134766 0)"/>
      <use xlink:href="#DejaVuSans-61" transform="translate(949.658203 0)"/>
      <use xlink:href="#DejaVuSans-6c" transform="translate(1010.9375 0)"/>
      <use xlink:href="#DejaVuSans-29" transform="translate(1038.720703 0)"/>
     </g>
    </g>
    <g id="text_14">
     <!-- 1e7 -->
     <g transform="translate(42.620313 48.36) scale(0.1 -0.1)">
      <defs>
       <path id="DejaVuSans-37" d="M 525 4666 
L 3525 4666 
L 3525 4397 
L 1831 0 
L 1172 0 
L 2766 4134 
L 525 4134 
L 525 4666 
z
" transform="scale(0.015625)"/>
      </defs>
      <use xlink:href="#DejaVuSans-31"/>
      <use xlink:href="#DejaVuSans-65" transform="translate(63.623047 0)"/>
      <use xlink:href="#DejaVuSans-37" transform="translate(125.146484 0)"/>
     </g>
    </g>
   </g>
   <g id="line2d_19">
    <path d="M 42.620313 51.36 
L 341.880313 51.36 
" clip-path="url(#p8dc770d713)" style="fill: none; stroke: #000000; stroke-width: 0.5; stroke-linecap: square"/>
   </g>
   <g id="patch_7">
    <path d="M 42.620313 318.04 
L 42.620313 51.36 
" style="fill: none; stroke: #000000; stroke-width: 0.8; stroke-linejoin: miter; stroke-linecap: square"/>
   </g>
   <g id="patch_8">
    <path d="M 341.880313 318.04 
L 341.880313 51.36 
" style="fill: none; stroke: #000000; stroke-width: 0.8; stroke-linejoin: miter; stroke-linecap: square"/>
   </g>
   <g id="patch_9">
    <path d="M 42.620313 318.04 
L 341.880312 318.04 
" style="fill: none; stroke: #000000; stroke-width: 0.8; stroke-linejoin: miter; stroke-linecap: square"/>
   </g>
   <g id="patch_10">
    <path d="M 42.620313 51.36 
L 341.880312 51.36 
" style="fill: none; stroke: #000000; stroke-width: 0.8; stroke-linejoin: miter; stroke-linecap: square"/>
   </g>
   <g id="text_15">
    <!-- Mean Energy Difference per Scale -->
    <g transform="translate(90.135938 45.36) scale(0.12 -0.12)">
     <defs>
      <path id="DejaVuSans-4d" d="M 628 4666 
L 1569 4666 
L 2759 1491 
L 3956 4666 
L 4897 4666 
L 4897 0 
L 4281 0 
L 4281 4097 
L 3078 897 
L 2444 897 
L 1241 4097 
L 1241 0 
L 628 0 
L 628 4666 
z
" transform="scale(0.015625)"/>
      <path id="DejaVuSans-44" d="M 1259 4147 
L 1259 519 
L 2022 519 
Q 2988 519 3436 956 
Q 3884 1394 3884 2338 
Q 3884 3275 3436 3711 
Q 2988 4147 2022 4147 
L 1259 4147 
z
M 628 4666 
L 1925 4666 
Q 3281 4666 3915 4102 
Q 4550 3538 4550 2338 
Q 4550 1131 3912 565 
Q 3275 0 1925 0 
L 628 0 
L 628 4666 
z
" transform="scale(0.015625)"/>
      <path id="DejaVuSans-69" d="M 603 3500 
L 1178 3500 
L 1178 0 
L 603 0 
L 603 3500 
z
M 603 4863 
L 1178 4863 
L 1178 4134 
L 603 4134 
L 603 4863 
z
" transform="scale(0.015625)"/>
      <path id="DejaVuSans-66" d="M 2375 4863 
L 2375 4384 
L 1825 4384 
Q 1516 4384 1395 4259 
Q 1275 4134 1275 3809 
L 1275 3500 
L 2222 3500 
L 2222 3053 
L 1275 3053 
L 1275 0 
L 697 0 
L 697 3053 
L 147 3053 
L 147 3500 
L 697 3500 
L 697 3744 
Q 697 4328 969 4595 
Q 1241 4863 1831 4863 
L 2375 4863 
z
" transform="scale(0.015625)"/>
      <path id="DejaVuSans-70" d="M 1159 525 
L 1159 -1331 
L 581 -1331 
L 581 3500 
L 1159 3500 
L 1159 2969 
Q 1341 3281 1617 3432 
Q 1894 3584 2278 3584 
Q 2916 3584 3314 3078 
Q 3713 2572 3713 1747 
Q 3713 922 3314 415 
Q 2916 -91 2278 -91 
Q 1894 -91 1617 61 
Q 1341 213 1159 525 
z
M 3116 1747 
Q 3116 2381 2855 2742 
Q 2594 3103 2138 3103 
Q 1681 3103 1420 2742 
Q 1159 2381 1159 1747 
Q 1159 1113 1420 752 
Q 1681 391 2138 391 
Q 2594 391 2855 752 
Q 3116 1113 3116 1747 
z
" transform="scale(0.015625)"/>
     </defs>
     <use xlink:href="#DejaVuSans-4d"/>
     <use xlink:href="#DejaVuSans-65" transform="translate(86.279297 0)"/>
     <use xlink:href="#DejaVuSans-61" transform="translate(147.802734 0)"/>
     <use xlink:href="#DejaVuSans-6e" transform="translate(209.082031 0)"/>
     <use xlink:href="#DejaVuSans-20" transform="translate(272.460938 0)"/>
     <use xlink:href="#DejaVuSans-45" transform="translate(304.248047 0)"/>
     <use xlink:href="#DejaVuSans-6e" transform="translate(367.431641 0)"/>
     <use xlink:href="#DejaVuSans-65" transform="translate(430.810547 0)"/>
     <use xlink:href="#DejaVuSans-72" transform="translate(492.333984 0)"/>
     <use xlink:href="#DejaVuSans-67" transform="translate(531.697266 0)"/>
     <use xlink:href="#DejaVuSans-79" transform="translate(595.173828 0)"/>
     <use xlink:href="#DejaVuSans-20" transform="translate(654.353516 0)"/>
     <use xlink:href="#DejaVuSans-44" transform="translate(686.140625 0)"/>
     <use xlink:href="#DejaVuSans-69" transform="translate(763.142578 0)"/>
     <use xlink:href="#DejaVuSans-66" transform="translate(790.925781 0)"/>
     <use xlink:href="#DejaVuSans-66" transform="translate(826.130859 0)"/>
     <use xlink:href="#DejaVuSans-65" transform="translate(861.335938 0)"/>
     <use xlink:href="#DejaVuSans-72" transform="translate(922.859375 0)"/>
     <use xlink:href="#DejaVuSans-65" transform="translate(961.722656 0)"/>
     <use xlink:href="#DejaVuSans-6e" transform="translate(1023.246094 0)"/>
     <use xlink:href="#DejaVuSans-63" transform="translate(1086.625 0)"/>
     <use xlink:href="#DejaVuSans-65" transform="translate(1141.605469 0)"/>
     <use xlink:href="#DejaVuSans-20" transform="translate(1203.128906 0)"/>
     <use xlink:href="#DejaVuSans-70" transform="translate(1234.916016 0)"/>
     <use xlink:href="#DejaVuSans-65" transform="translate(1298.392578 0)"/>
     <use xlink:href="#DejaVuSans-72" transform="translate(1359.916016 0)"/>
     <use xlink:href="#DejaVuSans-20" transform="translate(1401.029297 0)"/>
     <use xlink:href="#DejaVuSans-53" transform="translate(1432.816406 0)"/>
     <use xlink:href="#DejaVuSans-63" transform="translate(1496.292969 0)"/>
     <use xlink:href="#DejaVuSans-61" transform="translate(1551.273438 0)"/>
     <use xlink:href="#DejaVuSans-6c" transform="translate(1612.552734 0)"/>
     <use xlink:href="#DejaVuSans-65" transform="translate(1640.335938 0)"/>
    </g>
   </g>
  </g>
  <g id="axes_2">
   <g id="patch_11">
    <path d="M 404.270312 318.04 
L 703.530313 318.04 
L 703.530313 51.36 
L 404.270312 51.36 
z
" style="fill: #ffffff"/>
   </g>
   <g id="patch_12">
    <path d="M 417.87304 275.746398 
L 475.147681 275.746398 
L 475.147681 251.84619 
L 417.87304 251.84619 
z
" clip-path="url(#p78f56c543f)" style="fill: #d62728; opacity: 0.8"/>
   </g>
   <g id="patch_13">
    <path d="M 489.466341 275.746398 
L 546.740982 275.746398 
L 546.740982 305.918182 
L 489.466341 305.918182 
z
" clip-path="url(#p78f56c543f)" style="fill: #2ca02c; opacity: 0.8"/>
   </g>
   <g id="patch_14">
    <path d="M 561.059643 275.746398 
L 618.334284 275.746398 
L 618.334284 217.041155 
L 561.059643 217.041155 
z
" clip-path="url(#p78f56c543f)" style="fill: #d62728; opacity: 0.8"/>
   </g>
   <g id="patch_15">
    <path d="M 632.652944 275.746398 
L 689.927585 275.746398 
L 689.927585 63.481818 
L 632.652944 63.481818 
z
" clip-path="url(#p78f56c543f)" style="fill: #d62728; opacity: 0.8"/>
   </g>
   <g id="matplotlib.axis_3">
    <g id="xtick_5">
     <g id="line2d_20">
      <g>
       <use xlink:href="#m4dd3b64f3d" x="446.51036" y="318.04" style="stroke: #000000; stroke-width: 0.8"/>
      </g>
     </g>
     <g id="text_16">
      <!-- S0 -->
      <g transform="translate(440.154892 332.638437) scale(0.1 -0.1)">
       <use xlink:href="#DejaVuSans-53"/>
       <use xlink:href="#DejaVuSans-30" transform="translate(63.476562 0)"/>
      </g>
     </g>
    </g>
    <g id="xtick_6">
     <g id="line2d_21">
      <g>
       <use xlink:href="#m4dd3b64f3d" x="518.103662" y="318.04" style="stroke: #000000; stroke-width: 0.8"/>
      </g>
     </g>
     <g id="text_17">
      <!-- S1 -->
      <g transform="translate(511.748193 332.638437) scale(0.1 -0.1)">
       <use xlink:href="#DejaVuSans-53"/>
       <use xlink:href="#DejaVuSans-31" transform="translate(63.476562 0)"/>
      </g>
     </g>
    </g>
    <g id="xtick_7">
     <g id="line2d_22">
      <g>
       <use xlink:href="#m4dd3b64f3d" x="589.696963" y="318.04" style="stroke: #000000; stroke-width: 0.8"/>
      </g>
     </g>
     <g id="text_18">
      <!-- S2 -->
      <g transform="translate(583.341494 332.638437) scale(0.1 -0.1)">
       <use xlink:href="#DejaVuSans-53"/>
       <use xlink:href="#DejaVuSans-32" transform="translate(63.476562 0)"/>
      </g>
     </g>
    </g>
    <g id="xtick_8">
     <g id="line2d_23">
      <g>
       <use xlink:href="#m4dd3b64f3d" x="661.290265" y="318.04" style="stroke: #000000; stroke-width: 0.8"/>
      </g>
     </g>
     <g id="text_19">
      <!-- S3 -->
      <g transform="translate(654.934796 332.638437) scale(0.1 -0.1)">
       <use xlink:href="#DejaVuSans-53"/>
       <use xlink:href="#DejaVuSans-33" transform="translate(63.476562 0)"/>
      </g>
     </g>
    </g>
    <g id="text_20">
     <!-- Scale -->
     <g transform="translate(540.447188 346.316562) scale(0.1 -0.1)">
      <use xlink:href="#DejaVuSans-53"/>
      <use xlink:href="#DejaVuSans-63" transform="translate(63.476562 0)"/>
      <use xlink:href="#DejaVuSans-61" transform="translate(118.457031 0)"/>
      <use xlink:href="#DejaVuSans-6c" transform="translate(179.736328 0)"/>
      <use xlink:href="#DejaVuSans-65" transform="translate(207.519531 0)"/>
     </g>
    </g>
   </g>
   <g id="matplotlib.axis_4">
    <g id="ytick_8">
     <g id="line2d_24">
      <path d="M 404.270312 311.073049 
L 703.530313 311.073049 
" clip-path="url(#p78f56c543f)" style="fill: none; stroke: #b0b0b0; stroke-opacity: 0.3; stroke-width: 0.8; stroke-linecap: square"/>
     </g>
     <g id="line2d_25">
      <g>
       <use xlink:href="#mf4c519da12" x="404.270312" y="311.073049" style="stroke: #000000; stroke-width: 0.8"/>
      </g>
     </g>
     <g id="text_21">
      <!-- −0.5 -->
      <g transform="translate(372.9875 314.872268) scale(0.1 -0.1)">
       <defs>
        <path id="DejaVuSans-2e" d="M 684 794 
L 1344 794 
L 1344 0 
L 684 0 
L 684 794 
z
" transform="scale(0.015625)"/>
       </defs>
       <use xlink:href="#DejaVuSans-2212"/>
       <use xlink:href="#DejaVuSans-30" transform="translate(83.789062 0)"/>
       <use xlink:href="#DejaVuSans-2e" transform="translate(147.412109 0)"/>
       <use xlink:href="#DejaVuSans-35" transform="translate(179.199219 0)"/>
      </g>
     </g>
    </g>
    <g id="ytick_9">
     <g id="line2d_26">
      <path d="M 404.270312 275.746398 
L 703.530313 275.746398 
" clip-path="url(#p78f56c543f)" style="fill: none; stroke: #b0b0b0; stroke-opacity: 0.3; stroke-width: 0.8; stroke-linecap: square"/>
     </g>
     <g id="line2d_27">
      <g>
       <use xlink:href="#mf4c519da12" x="404.270312" y="275.746398" style="stroke: #000000; stroke-width: 0.8"/>
      </g>
     </g>
     <g id="text_22">
      <!-- 0.0 -->
      <g transform="translate(381.367188 279.545617) scale(0.1 -0.1)">
       <use xlink:href="#DejaVuSans-30"/>
       <use xlink:href="#DejaVuSans-2e" transform="translate(63.623047 0)"/>
       <use xlink:href="#DejaVuSans-30" transform="translate(95.410156 0)"/>
      </g>
     </g>
    </g>
    <g id="ytick_10">
     <g id="line2d_28">
      <path d="M 404.270312 240.419747 
L 703.530313 240.419747 
" clip-path="url(#p78f56c543f)" style="fill: none; stroke: #b0b0b0; stroke-opacity: 0.3; stroke-width: 0.8; stroke-linecap: square"/>
     </g>
     <g id="line2d_29">
      <g>
       <use xlink:href="#mf4c519da12" x="404.270312" y="240.419747" style="stroke: #000000; stroke-width: 0.8"/>
      </g>
     </g>
     <g id="text_23">
      <!-- 0.5 -->
      <g transform="translate(381.367188 244.218966) scale(0.1 -0.1)">
       <use xlink:href="#DejaVuSans-30"/>
       <use xlink:href="#DejaVuSans-2e" transform="translate(63.623047 0)"/>
       <use xlink:href="#DejaVuSans-35" transform="translate(95.410156 0)"/>
      </g>
     </g>
    </g>
    <g id="ytick_11">
     <g id="line2d_30">
      <path d="M 404.270312 205.093096 
L 703.530313 205.093096 
" clip-path="url(#p78f56c543f)" style="fill: none; stroke: #b0b0b0; stroke-opacity: 0.3; stroke-width: 0.8; stroke-linecap: square"/>
     </g>
     <g id="line2d_31">
      <g>
       <use xlink:href="#mf4c519da12" x="404.270312" y="205.093096" style="stroke: #000000; stroke-width: 0.8"/>
      </g>
     </g>
     <g id="text_24">
      <!-- 1.0 -->
      <g transform="translate(381.367188 208.892315) scale(0.1 -0.1)">
       <use xlink:href="#DejaVuSans-31"/>
       <use xlink:href="#DejaVuSans-2e" transform="translate(63.623047 0)"/>
       <use xlink:href="#DejaVuSans-30" transform="translate(95.410156 0)"/>
      </g>
     </g>
    </g>
    <g id="ytick_12">
     <g id="line2d_32">
      <path d="M 404.270312 169.766445 
L 703.530313 169.766445 
" clip-path="url(#p78f56c543f)" style="fill: none; stroke: #b0b0b0; stroke-opacity: 0.3; stroke-width: 0.8; stroke-linecap: square"/>
     </g>
     <g id="line2d_33">
      <g>
       <use xlink:href="#mf4c519da12" x="404.270312" y="169.766445" style="stroke: #000000; stroke-width: 0.8"/>
      </g>
     </g>
     <g id="text_25">
      <!-- 1.5 -->
      <g transform="translate(381.367188 173.565664) scale(0.1 -0.1)">
       <use xlink:href="#DejaVuSans-31"/>
       <use xlink:href="#DejaVuSans-2e" transform="translate(63.623047 0)"/>
       <use xlink:href="#DejaVuSans-35" transform="translate(95.410156 0)"/>
      </g>
     </g>
    </g>
    <g id="ytick_13">
     <g id="line2d_34">
      <path d="M 404.270312 134.439794 
L 703.530313 134.439794 
" clip-path="url(#p78f56c543f)" style="fill: none; stroke: #b0b0b0; stroke-opacity: 0.3; stroke-width: 0.8; stroke-linecap: square"/>
     </g>
     <g id="line2d_35">
      <g>
       <use xlink:href="#mf4c519da12" x="404.270312" y="134.439794" style="stroke: #000000; stroke-width: 0.8"/>
      </g>
     </g>
     <g id="text_26">
      <!-- 2.0 -->
      <g transform="translate(381.367188 138.239013) scale(0.1 -0.1)">
       <use xlink:href="#DejaVuSans-32"/>
       <use xlink:href="#DejaVuSans-2e" transform="translate(63.623047 0)"/>
       <use xlink:href="#DejaVuSans-30" transform="translate(95.410156 0)"/>
      </g>
     </g>
    </g>
    <g id="ytick_14">
     <g id="line2d_36">
      <path d="M 404.270312 99.113143 
L 703.530313 99.113143 
" clip-path="url(#p78f56c543f)" style="fill: none; stroke: #b0b0b0; stroke-opacity: 0.3; stroke-width: 0.8; stroke-linecap: square"/>
     </g>
     <g id="line2d_37">
      <g>
       <use xlink:href="#mf4c519da12" x="404.270312" y="99.113143" style="stroke: #000000; stroke-width: 0.8"/>
      </g>
     </g>
     <g id="text_27">
      <!-- 2.5 -->
      <g transform="translate(381.367188 102.912362) scale(0.1 -0.1)">
       <use xlink:href="#DejaVuSans-32"/>
       <use xlink:href="#DejaVuSans-2e" transform="translate(63.623047 0)"/>
       <use xlink:href="#DejaVuSans-35" transform="translate(95.410156 0)"/>
      </g>
     </g>
    </g>
    <g id="ytick_15">
     <g id="line2d_38">
      <path d="M 404.270312 63.786492 
L 703.530313 63.786492 
" clip-path="url(#p78f56c543f)" style="fill: none; stroke: #b0b0b0; stroke-opacity: 0.3; stroke-width: 0.8; stroke-linecap: square"/>
     </g>
     <g id="line2d_39">
      <g>
       <use xlink:href="#mf4c519da12" x="404.270312" y="63.786492" style="stroke: #000000; stroke-width: 0.8"/>
      </g>
     </g>
     <g id="text_28">
      <!-- 3.0 -->
      <g transform="translate(381.367188 67.585711) scale(0.1 -0.1)">
       <use xlink:href="#DejaVuSans-33"/>
       <use xlink:href="#DejaVuSans-2e" transform="translate(63.623047 0)"/>
       <use xlink:href="#DejaVuSans-30" transform="translate(95.410156 0)"/>
      </g>
     </g>
    </g>
    <g id="text_29">
     <!-- Kurtosis Δ (Gen - Real) -->
     <g transform="translate(366.907813 240.951562) rotate(-90) scale(0.1 -0.1)">
      <defs>
       <path id="DejaVuSans-4b" d="M 628 4666 
L 1259 4666 
L 1259 2694 
L 3353 4666 
L 4166 4666 
L 1850 2491 
L 4331 0 
L 3500 0 
L 1259 2247 
L 1259 0 
L 628 0 
L 628 4666 
z
" transform="scale(0.015625)"/>
       <path id="DejaVuSans-75" d="M 544 1381 
L 544 3500 
L 1119 3500 
L 1119 1403 
Q 1119 906 1312 657 
Q 1506 409 1894 409 
Q 2359 409 2629 706 
Q 2900 1003 2900 1516 
L 2900 3500 
L 3475 3500 
L 3475 0 
L 2900 0 
L 2900 538 
Q 2691 219 2414 64 
Q 2138 -91 1772 -91 
Q 1169 -91 856 284 
Q 544 659 544 1381 
z
M 1991 3584 
L 1991 3584 
z
" transform="scale(0.015625)"/>
       <path id="DejaVuSans-74" d="M 1172 4494 
L 1172 3500 
L 2356 3500 
L 2356 3053 
L 1172 3053 
L 1172 1153 
Q 1172 725 1289 603 
Q 1406 481 1766 481 
L 2356 481 
L 2356 0 
L 1766 0 
Q 1100 0 847 248 
Q 594 497 594 1153 
L 594 3053 
L 172 3053 
L 172 3500 
L 594 3500 
L 594 4494 
L 1172 4494 
z
" transform="scale(0.015625)"/>
       <path id="DejaVuSans-6f" d="M 1959 3097 
Q 1497 3097 1228 2736 
Q 959 2375 959 1747 
Q 959 1119 1226 758 
Q 1494 397 1959 397 
Q 2419 397 2687 759 
Q 2956 1122 2956 1747 
Q 2956 2369 2687 2733 
Q 2419 3097 1959 3097 
z
M 1959 3584 
Q 2709 3584 3137 3096 
Q 3566 2609 3566 1747 
Q 3566 888 3137 398 
Q 2709 -91 1959 -91 
Q 1206 -91 779 398 
Q 353 888 353 1747 
Q 353 2609 779 3096 
Q 1206 3584 1959 3584 
z
" transform="scale(0.015625)"/>
       <path id="DejaVuSans-73" d="M 2834 3397 
L 2834 2853 
Q 2591 2978 2328 3040 
Q 2066 3103 1784 3103 
Q 1356 3103 1142 2972 
Q 928 2841 928 2578 
Q 928 2378 1081 2264 
Q 1234 2150 1697 2047 
L 1894 2003 
Q 2506 1872 2764 1633 
Q 3022 1394 3022 966 
Q 3022 478 2636 193 
Q 2250 -91 1575 -91 
Q 1294 -91 989 -36 
Q 684 19 347 128 
L 347 722 
Q 666 556 975 473 
Q 1284 391 1588 391 
Q 1994 391 2212 530 
Q 2431 669 2431 922 
Q 2431 1156 2273 1281 
Q 2116 1406 1581 1522 
L 1381 1569 
Q 847 1681 609 1914 
Q 372 2147 372 2553 
Q 372 3047 722 3315 
Q 1072 3584 1716 3584 
Q 2034 3584 2315 3537 
Q 2597 3491 2834 3397 
z
" transform="scale(0.015625)"/>
      </defs>
      <use xlink:href="#DejaVuSans-4b"/>
      <use xlink:href="#DejaVuSans-75" transform="translate(60.576172 0)"/>
      <use xlink:href="#DejaVuSans-72" transform="translate(123.955078 0)"/>
      <use xlink:href="#DejaVuSans-74" transform="translate(165.068359 0)"/>
      <use xlink:href="#DejaVuSans-6f" transform="translate(204.277344 0)"/>
      <use xlink:href="#DejaVuSans-73" transform="translate(265.458984 0)"/>
      <use xlink:href="#DejaVuSans-69" transform="translate(317.558594 0)"/>
      <use xlink:href="#DejaVuSans-73" transform="translate(345.341797 0)"/>
      <use xlink:href="#DejaVuSans-20" transform="translate(397.441406 0)"/>
      <use xlink:href="#DejaVuSans-394" transform="translate(429.228516 0)"/>
      <use xlink:href="#DejaVuSans-20" transform="translate(497.636719 0)"/>
      <use xlink:href="#DejaVuSans-28" transform="translate(529.423828 0)"/>
      <use xlink:href="#DejaVuSans-47" transform="translate(568.4375 0)"/>
      <use xlink:href="#DejaVuSans-65" transform="translate(645.927734 0)"/>
      <use xlink:href="#DejaVuSans-6e" transform="translate(707.451172 0)"/>
      <use xlink:href="#DejaVuSans-20" transform="translate(770.830078 0)"/>
      <use xlink:href="#DejaVuSans-2d" transform="translate(802.617188 0)"/>
      <use xlink:href="#DejaVuSans-20" transform="translate(838.701172 0)"/>
      <use xlink:href="#DejaVuSans-52" transform="translate(870.488281 0)"/>
      <use xlink:href="#DejaVuSans-65" transform="translate(935.470703 0)"/>
      <use xlink:href="#DejaVuSans-61" transform="translate(996.994141 0)"/>
      <use xlink:href="#DejaVuSans-6c" transform="translate(1058.273438 0)"/>
      <use xlink:href="#DejaVuSans-29" transform="translate(1086.056641 0)"/>
     </g>
    </g>
   </g>
   <g id="line2d_40">
    <path d="M 404.270312 275.746398 
L 703.530313 275.746398 
" clip-path="url(#p78f56c543f)" style="fill: none; stroke: #000000; stroke-width: 0.5; stroke-linecap: square"/>
   </g>
   <g id="patch_16">
    <path d="M 404.270312 318.04 
L 404.270312 51.36 
" style="fill: none; stroke: #000000; stroke-width: 0.8; stroke-linejoin: miter; stroke-linecap: square"/>
   </g>
   <g id="patch_17">
    <path d="M 703.530313 318.04 
L 703.530313 51.36 
" style="fill: none; stroke: #000000; stroke-width: 0.8; stroke-linejoin: miter; stroke-linecap: square"/>
   </g>
   <g id="patch_18">
    <path d="M 404.270312 318.04 
L 703.530313 318.04 
" style="fill: none; stroke: #000000; stroke-width: 0.8; stroke-linejoin: miter; stroke-linecap: square"/>
   </g>
   <g id="patch_19">
    <path d="M 404.270312 51.36 
L 703.530313 51.36 
" style="fill: none; stroke: #000000; stroke-width: 0.8; stroke-linejoin: miter; stroke-linecap: square"/>
   </g>
   <g id="text_30">
    <!-- Mean Kurtosis Difference per Scale -->
    <g transform="translate(448.948125 45.36) scale(0.12 -0.12)">
     <use xlink:href="#DejaVuSans-4d"/>
     <use xlink:href="#DejaVuSans-65" transform="translate(86.279297 0)"/>
     <use xlink:href="#DejaVuSans-61" transform="translate(147.802734 0)"/>
     <use xlink:href="#DejaVuSans-6e" transform="translate(209.082031 0)"/>
     <use xlink:href="#DejaVuSans-20" transform="translate(272.460938 0)"/>
     <use xlink:href="#DejaVuSans-4b" transform="translate(304.248047 0)"/>
     <use xlink:href="#DejaVuSans-75" transform="translate(364.824219 0)"/>
     <use xlink:href="#DejaVuSans-72" transform="translate(428.203125 0)"/>
     <use xlink:href="#DejaVuSans-74" transform="translate(469.316406 0)"/>
     <use xlink:href="#DejaVuSans-6f" transform="translate(508.525391 0)"/>
     <use xlink:href="#DejaVuSans-73" transform="translate(569.707031 0)"/>
     <use xlink:href="#DejaVuSans-69" transform="translate(621.806641 0)"/>
     <use xlink:href="#DejaVuSans-73" transform="translate(649.589844 0)"/>
     <use xlink:href="#DejaVuSans-20" transform="translate(701.689453 0)"/>
     <use xlink:href="#DejaVuSans-44" transform="translate(733.476562 0)"/>
     <use xlink:href="#DejaVuSans-69" transform="translate(810.478516 0)"/>
     <use xlink:href="#DejaVuSans-66" transform="translate(838.261719 0)"/>
     <use xlink:href="#DejaVuSans-66" transform="translate(873.466797 0)"/>
     <use xlink:href="#DejaVuSans-65" transform="translate(908.671875 0)"/>
     <use xlink:href="#DejaVuSans-72" transform="translate(970.195312 0)"/>
     <use xlink:href="#DejaVuSans-65" transform="translate(1009.058594 0)"/>
     <use xlink:href="#DejaVuSans-6e" transform="translate(1070.582031 0)"/>
     <use xlink:href="#DejaVuSans-63" transform="translate(1133.960938 0)"/>
     <use xlink:href="#DejaVuSans-65" transform="translate(1188.941406 0)"/>
     <use xlink:href="#DejaVuSans-20" transform="translate(1250.464844 0)"/>
     <use xlink:href="#DejaVuSans-70" transform="translate(1282.251953 0)"/>
     <use xlink:href="#DejaVuSans-65" transform="translate(1345.728516 0)"/>
     <use xlink:href="#DejaVuSans-72" transform="translate(1407.251953 0)"/>
     <use xlink:href="#DejaVuSans-20" transform="translate(1448.365234 0)"/>
     <use xlink:href="#DejaVuSans-53" transform="translate(1480.152344 0)"/>
     <use xlink:href="#DejaVuSans-63" transform="translate(1543.628906 0)"/>
     <use xlink:href="#DejaVuSans-61" transform="translate(1598.609375 0)"/>
     <use xlink:href="#DejaVuSans-6c" transform="translate(1659.888672 0)"/>
     <use xlink:href="#DejaVuSans-65" transform="translate(1687.671875 0)"/>
    </g>
   </g>
  </g>
  <g id="axes_3">
   <g id="patch_20">
    <path d="M 765.920313 318.04 
L 1065.180313 318.04 
L 1065.180313 51.36 
L 765.920313 51.36 
z
" style="fill: #ffffff"/>
   </g>
   <g id="patch_21">
    <path d="M 779.52304 51.36 
L 836.797681 51.36 
L 836.797681 51.36 
L 779.52304 51.36 
z
" clip-path="url(#p672da0cbc0)" style="fill: #2ca02c; opacity: 0.8"/>
   </g>
   <g id="patch_22">
    <path d="M 851.116341 51.36 
L 908.390982 51.36 
L 908.390982 181.104131 
L 851.116341 181.104131 
z
" clip-path="url(#p672da0cbc0)" style="fill: #2ca02c; opacity: 0.8"/>
   </g>
   <g id="patch_23">
    <path d="M 922.709643 51.36 
L 979.984284 51.36 
L 979.984284 77.412479 
L 922.709643 77.412479 
z
" clip-path="url(#p672da0cbc0)" style="fill: #2ca02c; opacity: 0.8"/>
   </g>
   <g id="patch_24">
    <path d="M 994.302944 51.36 
L 1051.577585 51.36 
L 1051.577585 305.340952 
L 994.302944 305.340952 
z
" clip-path="url(#p672da0cbc0)" style="fill: #2ca02c; opacity: 0.8"/>
   </g>
   <g id="matplotlib.axis_5">
    <g id="xtick_9">
     <g id="line2d_41">
      <g>
       <use xlink:href="#m4dd3b64f3d" x="808.16036" y="318.04" style="stroke: #000000; stroke-width: 0.8"/>
      </g>
     </g>
     <g id="text_31">
      <!-- S0 -->
      <g transform="translate(801.804892 332.638437) scale(0.1 -0.1)">
       <use xlink:href="#DejaVuSans-53"/>
       <use xlink:href="#DejaVuSans-30" transform="translate(63.476562 0)"/>
      </g>
     </g>
    </g>
    <g id="xtick_10">
     <g id="line2d_42">
      <g>
       <use xlink:href="#m4dd3b64f3d" x="879.753662" y="318.04" style="stroke: #000000; stroke-width: 0.8"/>
      </g>
     </g>
     <g id="text_32">
      <!-- S1 -->
      <g transform="translate(873.398193 332.638437) scale(0.1 -0.1)">
       <use xlink:href="#DejaVuSans-53"/>
       <use xlink:href="#DejaVuSans-31" transform="translate(63.476562 0)"/>
      </g>
     </g>
    </g>
    <g id="xtick_11">
     <g id="line2d_43">
      <g>
       <use xlink:href="#m4dd3b64f3d" x="951.346963" y="318.04" style="stroke: #000000; stroke-width: 0.8"/>
      </g>
     </g>
     <g id="text_33">
      <!-- S2 -->
      <g transform="translate(944.991494 332.638437) scale(0.1 -0.1)">
       <use xlink:href="#DejaVuSans-53"/>
       <use xlink:href="#DejaVuSans-32" transform="translate(63.476562 0)"/>
      </g>
     </g>
    </g>
    <g id="xtick_12">
     <g id="line2d_44">
      <g>
       <use xlink:href="#m4dd3b64f3d" x="1022.940265" y="318.04" style="stroke: #000000; stroke-width: 0.8"/>
      </g>
     </g>
     <g id="text_34">
      <!-- S3 -->
      <g transform="translate(1016.584796 332.638437) scale(0.1 -0.1)">
       <use xlink:href="#DejaVuSans-53"/>
       <use xlink:href="#DejaVuSans-33" transform="translate(63.476562 0)"/>
      </g>
     </g>
    </g>
    <g id="text_35">
     <!-- Scale -->
     <g transform="translate(902.097188 346.316562) scale(0.1 -0.1)">
      <use xlink:href="#DejaVuSans-53"/>
      <use xlink:href="#DejaVuSans-63" transform="translate(63.476562 0)"/>
      <use xlink:href="#DejaVuSans-61" transform="translate(118.457031 0)"/>
      <use xlink:href="#DejaVuSans-6c" transform="translate(179.736328 0)"/>
      <use xlink:href="#DejaVuSans-65" transform="translate(207.519531 0)"/>
     </g>
    </g>
   </g>
   <g id="matplotlib.axis_6">
    <g id="ytick_16">
     <g id="line2d_45">
      <path d="M 765.920313 296.791835 
L 1065.180313 296.791835 
" clip-path="url(#p672da0cbc0)" style="fill: none; stroke: #b0b0b0; stroke-opacity: 0.3; stroke-width: 0.8; stroke-linecap: square"/>
     </g>
     <g id="line2d_46">
      <g>
       <use xlink:href="#mf4c519da12" x="765.920313" y="296.791835" style="stroke: #000000; stroke-width: 0.8"/>
      </g>
     </g>
     <g id="text_36">
      <!-- −1.75 -->
      <g transform="translate(728.275 300.591054) scale(0.1 -0.1)">
       <use xlink:href="#DejaVuSans-2212"/>
       <use xlink:href="#DejaVuSans-31" transform="translate(83.789062 0)"/>
       <use xlink:href="#DejaVuSans-2e" transform="translate(147.412109 0)"/>
       <use xlink:href="#DejaVuSans-37" transform="translate(179.199219 0)"/>
       <use xlink:href="#DejaVuSans-35" transform="translate(242.822266 0)"/>
      </g>
     </g>
    </g>
    <g id="ytick_17">
     <g id="line2d_47">
      <path d="M 765.920313 261.730144 
L 1065.180313 261.730144 
" clip-path="url(#p672da0cbc0)" style="fill: none; stroke: #b0b0b0; stroke-opacity: 0.3; stroke-width: 0.8; stroke-linecap: square"/>
     </g>
     <g id="line2d_48">
      <g>
       <use xlink:href="#mf4c519da12" x="765.920313" y="261.730144" style="stroke: #000000; stroke-width: 0.8"/>
      </g>
     </g>
     <g id="text_37">
      <!-- −1.50 -->
      <g transform="translate(728.275 265.529363) scale(0.1 -0.1)">
       <use xlink:href="#DejaVuSans-2212"/>
       <use xlink:href="#DejaVuSans-31" transform="translate(83.789062 0)"/>
       <use xlink:href="#DejaVuSans-2e" transform="translate(147.412109 0)"/>
       <use xlink:href="#DejaVuSans-35" transform="translate(179.199219 0)"/>
       <use xlink:href="#DejaVuSans-30" transform="translate(242.822266 0)"/>
      </g>
     </g>
    </g>
    <g id="ytick_18">
     <g id="line2d_49">
      <path d="M 765.920313 226.668453 
L 1065.180313 226.668453 
" clip-path="url(#p672da0cbc0)" style="fill: none; stroke: #b0b0b0; stroke-opacity: 0.3; stroke-width: 0.8; stroke-linecap: square"/>
     </g>
     <g id="line2d_50">
      <g>
       <use xlink:href="#mf4c519da12" x="765.920313" y="226.668453" style="stroke: #000000; stroke-width: 0.8"/>
      </g>
     </g>
     <g id="text_38">
      <!-- −1.25 -->
      <g transform="translate(728.275 230.467672) scale(0.1 -0.1)">
       <use xlink:href="#DejaVuSans-2212"/>
       <use xlink:href="#DejaVuSans-31" transform="translate(83.789062 0)"/>
       <use xlink:href="#DejaVuSans-2e" transform="translate(147.412109 0)"/>
       <use xlink:href="#DejaVuSans-32" transform="translate(179.199219 0)"/>
       <use xlink:href="#DejaVuSans-35" transform="translate(242.822266 0)"/>
      </g>
     </g>
    </g>
    <g id="ytick_19">
     <g id="line2d_51">
      <path d="M 765.920313 191.606763 
L 1065.180313 191.606763 
" clip-path="url(#p672da0cbc0)" style="fill: none; stroke: #b0b0b0; stroke-opacity: 0.3; stroke-width: 0.8; stroke-linecap: square"/>
     </g>
     <g id="line2d_52">
      <g>
       <use xlink:href="#mf4c519da12" x="765.920313" y="191.606763" style="stroke: #000000; stroke-width: 0.8"/>
      </g>
     </g>
     <g id="text_39">
      <!-- −1.00 -->
      <g transform="translate(728.275 195.405981) scale(0.1 -0.1)">
       <use xlink:href="#DejaVuSans-2212"/>
       <use xlink:href="#DejaVuSans-31" transform="translate(83.789062 0)"/>
       <use xlink:href="#DejaVuSans-2e" transform="translate(147.412109 0)"/>
       <use xlink:href="#DejaVuSans-30" transform="translate(179.199219 0)"/>
       <use xlink:href="#DejaVuSans-30" transform="translate(242.822266 0)"/>
      </g>
     </g>
    </g>
    <g id="ytick_20">
     <g id="line2d_53">
      <path d="M 765.920313 156.545072 
L 1065.180313 156.545072 
" clip-path="url(#p672da0cbc0)" style="fill: none; stroke: #b0b0b0; stroke-opacity: 0.3; stroke-width: 0.8; stroke-linecap: square"/>
     </g>
     <g id="line2d_54">
      <g>
       <use xlink:href="#mf4c519da12" x="765.920313" y="156.545072" style="stroke: #000000; stroke-width: 0.8"/>
      </g>
     </g>
     <g id="text_40">
      <!-- −0.75 -->
      <g transform="translate(728.275 160.344291) scale(0.1 -0.1)">
       <use xlink:href="#DejaVuSans-2212"/>
       <use xlink:href="#DejaVuSans-30" transform="translate(83.789062 0)"/>
       <use xlink:href="#DejaVuSans-2e" transform="translate(147.412109 0)"/>
       <use xlink:href="#DejaVuSans-37" transform="translate(179.199219 0)"/>
       <use xlink:href="#DejaVuSans-35" transform="translate(242.822266 0)"/>
      </g>
     </g>
    </g>
    <g id="ytick_21">
     <g id="line2d_55">
      <path d="M 765.920313 121.483381 
L 1065.180313 121.483381 
" clip-path="url(#p672da0cbc0)" style="fill: none; stroke: #b0b0b0; stroke-opacity: 0.3; stroke-width: 0.8; stroke-linecap: square"/>
     </g>
     <g id="line2d_56">
      <g>
       <use xlink:href="#mf4c519da12" x="765.920313" y="121.483381" style="stroke: #000000; stroke-width: 0.8"/>
      </g>
     </g>
     <g id="text_41">
      <!-- −0.50 -->
      <g transform="translate(728.275 125.2826) scale(0.1 -0.1)">
       <use xlink:href="#DejaVuSans-2212"/>
       <use xlink:href="#DejaVuSans-30" transform="translate(83.789062 0)"/>
       <use xlink:href="#DejaVuSans-2e" transform="translate(147.412109 0)"/>
       <use xlink:href="#DejaVuSans-35" transform="translate(179.199219 0)"/>
       <use xlink:href="#DejaVuSans-30" transform="translate(242.822266 0)"/>
      </g>
     </g>
    </g>
    <g id="ytick_22">
     <g id="line2d_57">
      <path d="M 765.920313 86.421691 
L 1065.180313 86.421691 
" clip-path="url(#p672da0cbc0)" style="fill: none; stroke: #b0b0b0; stroke-opacity: 0.3; stroke-width: 0.8; stroke-linecap: square"/>
     </g>
     <g id="line2d_58">
      <g>
       <use xlink:href="#mf4c519da12" x="765.920313" y="86.421691" style="stroke: #000000; stroke-width: 0.8"/>
      </g>
     </g>
     <g id="text_42">
      <!-- −0.25 -->
      <g transform="translate(728.275 90.220909) scale(0.1 -0.1)">
       <use xlink:href="#DejaVuSans-2212"/>
       <use xlink:href="#DejaVuSans-30" transform="translate(83.789062 0)"/>
       <use xlink:href="#DejaVuSans-2e" transform="translate(147.412109 0)"/>
       <use xlink:href="#DejaVuSans-32" transform="translate(179.199219 0)"/>
       <use xlink:href="#DejaVuSans-35" transform="translate(242.822266 0)"/>
      </g>
     </g>
    </g>
    <g id="ytick_23">
     <g id="line2d_59">
      <path d="M 765.920313 51.36 
L 1065.180313 51.36 
" clip-path="url(#p672da0cbc0)" style="fill: none; stroke: #b0b0b0; stroke-opacity: 0.3; stroke-width: 0.8; stroke-linecap: square"/>
     </g>
     <g id="line2d_60">
      <g>
       <use xlink:href="#mf4c519da12" x="765.920313" y="51.36" style="stroke: #000000; stroke-width: 0.8"/>
      </g>
     </g>
     <g id="text_43">
      <!-- 0.00 -->
      <g transform="translate(736.654688 55.159219) scale(0.1 -0.1)">
       <use xlink:href="#DejaVuSans-30"/>
       <use xlink:href="#DejaVuSans-2e" transform="translate(63.623047 0)"/>
       <use xlink:href="#DejaVuSans-30" transform="translate(95.410156 0)"/>
       <use xlink:href="#DejaVuSans-30" transform="translate(159.033203 0)"/>
      </g>
     </g>
    </g>
    <g id="text_44">
     <!-- Anisotropy Δ (Gen - Real) -->
     <g transform="translate(722.195312 247.81875) rotate(-90) scale(0.1 -0.1)">
      <defs>
       <path id="DejaVuSans-41" d="M 2188 4044 
L 1331 1722 
L 3047 1722 
L 2188 4044 
z
M 1831 4666 
L 2547 4666 
L 4325 0 
L 3669 0 
L 3244 1197 
L 1141 1197 
L 716 0 
L 50 0 
L 1831 4666 
z
" transform="scale(0.015625)"/>
      </defs>
      <use xlink:href="#DejaVuSans-41"/>
      <use xlink:href="#DejaVuSans-6e" transform="translate(68.408203 0)"/>
      <use xlink:href="#DejaVuSans-69" transform="translate(131.787109 0)"/>
      <use xlink:href="#DejaVuSans-73" transform="translate(159.570312 0)"/>
      <use xlink:href="#DejaVuSans-6f" transform="translate(211.669922 0)"/>
      <use xlink:href="#DejaVuSans-74" transform="translate(272.851562 0)"/>
      <use xlink:href="#DejaVuSans-72" transform="translate(312.060547 0)"/>
      <use xlink:href="#DejaVuSans-6f" transform="translate(350.923828 0)"/>
      <use xlink:href="#DejaVuSans-70" transform="translate(412.105469 0)"/>
      <use xlink:href="#DejaVuSans-79" transform="translate(475.582031 0)"/>
      <use xlink:href="#DejaVuSans-20" transform="translate(534.761719 0)"/>
      <use xlink:href="#DejaVuSans-394" transform="translate(566.548828 0)"/>
      <use xlink:href="#DejaVuSans-20" transform="translate(634.957031 0)"/>
      <use xlink:href="#DejaVuSans-28" transform="translate(666.744141 0)"/>
      <use xlink:href="#DejaVuSans-47" transform="translate(705.757812 0)"/>
      <use xlink:href="#DejaVuSans-65" transform="translate(783.248047 0)"/>
      <use xlink:href="#DejaVuSans-6e" transform="translate(844.771484 0)"/>
      <use xlink:href="#DejaVuSans-20" transform="translate(908.150391 0)"/>
      <use xlink:href="#DejaVuSans-2d" transform="translate(939.9375 0)"/>
      <use xlink:href="#DejaVuSans-20" transform="translate(976.021484 0)"/>
      <use xlink:href="#DejaVuSans-52" transform="translate(1007.808594 0)"/>
      <use xlink:href="#DejaVuSans-65" transform="translate(1072.791016 0)"/>
      <use xlink:href="#DejaVuSans-61" transform="translate(1134.314453 0)"/>
      <use xlink:href="#DejaVuSans-6c" transform="translate(1195.59375 0)"/>
      <use xlink:href="#DejaVuSans-29" transform="translate(1223.376953 0)"/>
     </g>
    </g>
   </g>
   <g id="line2d_61">
    <path d="M 765.920313 51.36 
L 1065.180313 51.36 
" clip-path="url(#p672da0cbc0)" style="fill: none; stroke: #000000; stroke-width: 0.5; stroke-linecap: square"/>
   </g>
   <g id="patch_25">
    <path d="M 765.920313 318.04 
L 765.920313 51.36 
" style="fill: none; stroke: #000000; stroke-width: 0.8; stroke-linejoin: miter; stroke-linecap: square"/>
   </g>
   <g id="patch_26">
    <path d="M 1065.180313 318.04 
L 1065.180313 51.36 
" style="fill: none; stroke: #000000; stroke-width: 0.8; stroke-linejoin: miter; stroke-linecap: square"/>
   </g>
   <g id="patch_27">
    <path d="M 765.920313 318.04 
L 1065.180313 318.04 
" style="fill: none; stroke: #000000; stroke-width: 0.8; stroke-linejoin: miter; stroke-linecap: square"/>
   </g>
   <g id="patch_28">
    <path d="M 765.920313 51.36 
L 1065.180313 51.36 
" style="fill: none; stroke: #000000; stroke-width: 0.8; stroke-linejoin: miter; stroke-linecap: square"/>
   </g>
   <g id="text_45">
    <!-- Directional Anisotropy Difference per Scale -->
    <g transform="translate(786.259688 45.36) scale(0.12 -0.12)">
     <use xlink:href="#DejaVuSans-44"/>
     <use xlink:href="#DejaVuSans-69" transform="translate(77.001953 0)"/>
     <use xlink:href="#DejaVuSans-72" transform="translate(104.785156 0)"/>
     <use xlink:href="#DejaVuSans-65" transform="translate(143.648438 0)"/>
     <use xlink:href="#DejaVuSans-63" transform="translate(205.171875 0)"/>
     <use xlink:href="#DejaVuSans-74" transform="translate(260.152344 0)"/>
     <use xlink:href="#DejaVuSans-69" transform="translate(299.361328 0)"/>
     <use xlink:href="#DejaVuSans-6f" transform="translate(327.144531 0)"/>
     <use xlink:href="#DejaVuSans-6e" transform="translate(388.326172 0)"/>
     <use xlink:href="#DejaVuSans-61" transform="translate(451.705078 0)"/>
     <use xlink:href="#DejaVuSans-6c" transform="translate(512.984375 0)"/>
     <use xlink:href="#DejaVuSans-20" transform="translate(540.767578 0)"/>
     <use xlink:href="#DejaVuSans-41" transform="translate(572.554688 0)"/>
     <use xlink:href="#DejaVuSans-6e" transform="translate(640.962891 0)"/>
     <use xlink:href="#DejaVuSans-69" transform="translate(704.341797 0)"/>
     <use xlink:href="#DejaVuSans-73" transform="translate(732.125 0)"/>
     <use xlink:href="#DejaVuSans-6f" transform="translate(784.224609 0)"/>
     <use xlink:href="#DejaVuSans-74" transform="translate(845.40625 0)"/>
     <use xlink:href="#DejaVuSans-72" transform="translate(884.615234 0)"/>
     <use xlink:href="#DejaVuSans-6f" transform="translate(923.478516 0)"/>
     <use xlink:href="#DejaVuSans-70" transform="translate(984.660156 0)"/>
     <use xlink:href="#DejaVuSans-79" transform="translate(1048.136719 0)"/>
     <use xlink:href="#DejaVuSans-20" transform="translate(1107.316406 0)"/>
     <use xlink:href="#DejaVuSans-44" transform="translate(1139.103516 0)"/>
     <use xlink:href="#DejaVuSans-69" transform="translate(1216.105469 0)"/>
     <use xlink:href="#DejaVuSans-66" transform="translate(1243.888672 0)"/>
     <use xlink:href="#DejaVuSans-66" transform="translate(1279.09375 0)"/>
     <use xlink:href="#DejaVuSans-65" transform="translate(1314.298828 0)"/>
     <use xlink:href="#DejaVuSans-72" transform="translate(1375.822266 0)"/>
     <use xlink:href="#DejaVuSans-65" transform="translate(1414.685547 0)"/>
     <use xlink:href="#DejaVuSans-6e" transform="translate(1476.208984 0)"/>
     <use xlink:href="#DejaVuSans-63" transform="translate(1539.587891 0)"/>
     <use xlink:href="#DejaVuSans-65" transform="translate(1594.568359 0)"/>
     <use xlink:href="#DejaVuSans-20" transform="translate(1656.091797 0)"/>
     <use xlink:href="#DejaVuSans-70" transform="translate(1687.878906 0)"/>
     <use xlink:href="#DejaVuSans-65" transform="translate(1751.355469 0)"/>
     <use xlink:href="#DejaVuSans-72" transform="translate(1812.878906 0)"/>
     <use xlink:href="#DejaVuSans-20" transform="translate(1853.992188 0)"/>
     <use xlink:href="#DejaVuSans-53" transform="translate(1885.779297 0)"/>
     <use xlink:href="#DejaVuSans-63" transform="translate(1949.255859 0)"/>
     <use xlink:href="#DejaVuSans-61" transform="translate(2004.236328 0)"/>
     <use xlink:href="#DejaVuSans-6c" transform="translate(2065.515625 0)"/>
     <use xlink:href="#DejaVuSans-65" transform="translate(2093.298828 0)"/>
    </g>
   </g>
  </g>
  <g id="text_46">
   <!-- Curvelet Analysis: Real (700 images) vs Generated (5000 images) -->
   <g transform="translate(304.3175 17.837812) scale(0.14 -0.14)">
    <defs>
     <path id="DejaVuSans-43" d="M 4122 4306 
L 4122 3641 
Q 3803 3938 3442 4084 
Q 3081 4231 2675 4231 
Q 1875 4231 1450 3742 
Q 1025 3253 1025 2328 
Q 1025 1406 1450 917 
Q 1875 428 2675 428 
Q 3081 428 3442 575 
Q 3803 722 4122 1019 
L 4122 359 
Q 3791 134 3420 21 
Q 3050 -91 2638 -91 
Q 1578 -91 968 557 
Q 359 1206 359 2328 
Q 359 3453 968 4101 
Q 1578 4750 2638 4750 
Q 3056 4750 3426 4639 
Q 3797 4528 4122 4306 
z
" transform="scale(0.015625)"/>
     <path id="DejaVuSans-76" d="M 191 3500 
L 800 3500 
L 1894 563 
L 2988 3500 
L 3597 3500 
L 2284 0 
L 1503 0 
L 191 3500 
z
" transform="scale(0.015625)"/>
     <path id="DejaVuSans-3a" d="M 750 794 
L 1409 794 
L 1409 0 
L 750 0 
L 750 794 
z
M 750 3309 
L 1409 3309 
L 1409 2516 
L 750 2516 
L 750 3309 
z
" transform="scale(0.015625)"/>
     <path id="DejaVuSans-6d" d="M 3328 2828 
Q 3544 3216 3844 3400 
Q 4144 3584 4550 3584 
Q 5097 3584 5394 3201 
Q 5691 2819 5691 2113 
L 5691 0 
L 5113 0 
L 5113 2094 
Q 5113 2597 4934 2840 
Q 4756 3084 4391 3084 
Q 3944 3084 3684 2787 
Q 3425 2491 3425 1978 
L 3425 0 
L 2847 0 
L 2847 2094 
Q 2847 2600 2669 2842 
Q 2491 3084 2119 3084 
Q 1678 3084 1418 2786 
Q 1159 2488 1159 1978 
L 1159 0 
L 581 0 
L 581 3500 
L 1159 3500 
L 1159 2956 
Q 1356 3278 1631 3431 
Q 1906 3584 2284 3584 
Q 2666 3584 2933 3390 
Q 3200 3197 3328 2828 
z
" transform="scale(0.015625)"/>
     <path id="DejaVuSans-64" d="M 2906 2969 
L 2906 4863 
L 3481 4863 
L 3481 0 
L 2906 0 
L 2906 525 
Q 2725 213 2448 61 
Q 2172 -91 1784 -91 
Q 1150 -91 751 415 
Q 353 922 353 1747 
Q 353 2572 751 3078 
Q 1150 3584 1784 3584 
Q 2172 3584 2448 3432 
Q 2725 3281 2906 2969 
z
M 947 1747 
Q 947 1113 1208 752 
Q 1469 391 1925 391 
Q 2381 391 2643 752 
Q 2906 1113 2906 1747 
Q 2906 2381 2643 2742 
Q 2381 3103 1925 3103 
Q 1469 3103 1208 2742 
Q 947 2381 947 1747 
z
" transform="scale(0.015625)"/>
    </defs>
    <use xlink:href="#DejaVuSans-43"/>
    <use xlink:href="#DejaVuSans-75" transform="translate(69.824219 0)"/>
    <use xlink:href="#DejaVuSans-72" transform="translate(133.203125 0)"/>
    <use xlink:href="#DejaVuSans-76" transform="translate(174.316406 0)"/>
    <use xlink:href="#DejaVuSans-65" transform="translate(233.496094 0)"/>
    <use xlink:href="#DejaVuSans-6c" transform="translate(295.019531 0)"/>
    <use xlink:href="#DejaVuSans-65" transform="translate(322.802734 0)"/>
    <use xlink:href="#DejaVuSans-74" transform="translate(384.326172 0)"/>
    <use xlink:href="#DejaVuSans-20" transform="translate(423.535156 0)"/>
    <use xlink:href="#DejaVuSans-41" transform="translate(455.322266 0)"/>
    <use xlink:href="#DejaVuSans-6e" transform="translate(523.730469 0)"/>
    <use xlink:href="#DejaVuSans-61" transform="translate(587.109375 0)"/>
    <use xlink:href="#DejaVuSans-6c" transform="translate(648.388672 0)"/>
    <use xlink:href="#DejaVuSans-79" transform="translate(676.171875 0)"/>
    <use xlink:href="#DejaVuSans-73" transform="translate(735.351562 0)"/>
    <use xlink:href="#DejaVuSans-69" transform="translate(787.451172 0)"/>
    <use xlink:href="#DejaVuSans-73" transform="translate(815.234375 0)"/>
    <use xlink:href="#DejaVuSans-3a" transform="translate(867.333984 0)"/>
    <use xlink:href="#DejaVuSans-20" transform="translate(901.025391 0)"/>
    <use xlink:href="#DejaVuSans-52" transform="translate(932.8125 0)"/>
    <use xlink:href="#DejaVuSans-65" transform="translate(997.794922 0)"/>
    <use xlink:href="#DejaVuSans-61" transform="translate(1059.318359 0)"/>
    <use xlink:href="#DejaVuSans-6c" transform="translate(1120.597656 0)"/>
    <use xlink:href="#DejaVuSans-20" transform="translate(1148.380859 0)"/>
    <use xlink:href="#DejaVuSans-28" transform="translate(1180.167969 0)"/>
    <use xlink:href="#DejaVuSans-37" transform="translate(1219.181641 0)"/>
    <use xlink:href="#DejaVuSans-30" transform="translate(1282.804688 0)"/>
    <use xlink:href="#DejaVuSans-30" transform="translate(1346.427734 0)"/>
    <use xlink:href="#DejaVuSans-20" transform="translate(1410.050781 0)"/>
    <use xlink:href="#DejaVuSans-69" transform="translate(1441.837891 0)"/>
    <use xlink:href="#DejaVuSans-6d" transform="translate(1469.621094 0)"/>
    <use xlink:href="#DejaVuSans-61" transform="translate(1567.033203 0)"/>
    <use xlink:href="#DejaVuSans-67" transform="translate(1628.3125 0)"/>
    <use xlink:href="#DejaVuSans-65" transform="translate(1691.789062 0)"/>
    <use xlink:href="#DejaVuSans-73" transform="translate(1753.3125 0)"/>
    <use xlink:href="#DejaVuSans-29" transform="translate(1805.412109 0)"/>
    <use xlink:href="#DejaVuSans-20" transform="translate(1844.425781 0)"/>
    <use xlink:href="#DejaVuSans-76" transform="translate(1876.212891 0)"/>
    <use xlink:href="#DejaVuSans-73" transform="translate(1935.392578 0)"/>
    <use xlink:href="#DejaVuSans-20" transform="translate(1987.492188 0)"/>
    <use xlink:href="#DejaVuSans-47" transform="translate(2019.279297 0)"/>
    <use xlink:href="#DejaVuSans-65" transform="translate(2096.769531 0)"/>
    <use xlink:href="#DejaVuSans-6e" transform="translate(2158.292969 0)"/>
    <use xlink:href="#DejaVuSans-65" transform="translate(2221.671875 0)"/>
    <use xlink:href="#DejaVuSans-72" transform="translate(2283.195312 0)"/>
    <use xlink:href="#DejaVuSans-61" transform="translate(2324.308594 0)"/>
    <use xlink:href="#DejaVuSans-74" transform="translate(2385.587891 0)"/>
    <use xlink:href="#DejaVuSans-65" transform="translate(2424.796875 0)"/>
    <use xlink:href="#DejaVuSans-64" transform="translate(2486.320312 0)"/>
    <use xlink:href="#DejaVuSans-20" transform="translate(2549.796875 0)"/>
    <use xlink:href="#DejaVuSans-28" transform="translate(2581.583984 0)"/>
    <use xlink:href="#DejaVuSans-35" transform="translate(2620.597656 0)"/>
    <use xlink:href="#DejaVuSans-30" transform="translate(2684.220703 0)"/>
    <use xlink:href="#DejaVuSans-30" transform="translate(2747.84375 0)"/>
    <use xlink:href="#DejaVuSans-30" transform="translate(2811.466797 0)"/>
    <use xlink:href="#DejaVuSans-20" transform="translate(2875.089844 0)"/>
    <use xlink:href="#DejaVuSans-69" transform="translate(2906.876953 0)"/>
    <use xlink:href="#DejaVuSans-6d" transform="translate(2934.660156 0)"/>
    <use xlink:href="#DejaVuSans-61" transform="translate(3032.072266 0)"/>
    <use xlink:href="#DejaVuSans-67" transform="translate(3093.351562 0)"/>
    <use xlink:href="#DejaVuSans-65" transform="translate(3156.828125 0)"/>
    <use xlink:href="#DejaVuSans-73" transform="translate(3218.351562 0)"/>
    <use xlink:href="#DejaVuSans-29" transform="translate(3270.451172 0)"/>
   </g>
  </g>
 </g>
 <defs>
  <clipPath id="p8dc770d713">
   <rect x="42.620313" y="51.36" width="299.26" height="266.68"/>
  </clipPath>
  <clipPath id="p78f56c543f">
   <rect x="404.270312" y="51.36" width="299.26" height="266.68"/>
  </clipPath>
  <clipPath id="p672da0cbc0">
   <rect x="765.920313" y="51.36" width="299.26" height="266.68"/>
  </clipPath>
 </defs>
</svg>
